<svg xmlns="http://www.w3.org/2000/svg" version="1.1" xmlns:xlink="http://www.w3.org/1999/xlink" xmlns:svgjs="http://svgjs.dev/svgjs" width="1440" height="560" preserveAspectRatio="none" viewBox="0 0 1440 560">
    <g mask="url(&quot;#SvgjsMask1000&quot;)" fill="none">
        <rect width="1440" height="560" x="0" y="0" fill="#0e2a47"></rect>
        <path d="M1250.5 43.9 a29.76 29.76 0 1 0 59.52 0 a29.76 29.76 0 1 0 -59.52 0z" fill="#037b0b"></path>
        <path d="M66.42 289.12L91.89 289.12L91.89 314.59L66.42 314.59z" stroke="#e73635"></path>
        <path d="M1174.2 115.4 a11.6 11.6 0 1 0 23.2 0 a11.6 11.6 0 1 0 -23.2 0z" fill="#d3b714"></path>
        <path d="M281.93 507.34L321.82 507.34L321.82 547.23L281.93 547.23z" fill="#d3b714"></path>
        <path d="M1338.47 243.95 a49.45 49.45 0 1 0 98.9 0 a49.45 49.45 0 1 0 -98.9 0z" stroke="#037b0b"></path>
        <path d="M806.53 266.24L822.24 266.24L822.24 281.95L806.53 281.95z" fill="#d3b714"></path>
        <path d="M640.93 393.79 a13.64 13.64 0 1 0 27.28 0 a13.64 13.64 0 1 0 -27.28 0z" fill="#e73635"></path>
        <path d="M1381.85 89.6L1420.02 89.6L1420.02 135.25L1381.85 135.25z" fill="#037b0b"></path>
        <path d="M1200.3 114.57L1216.28 114.57L1216.28 128.37L1200.3 128.37z" fill="#037b0b"></path>
        <path d="M1372.16 171.06a39.6 39.6 0 1 0-57.18-54.8z" stroke="#037b0b"></path>
        <path d="M215.47 294.3a33.65 33.65 0 1 0 48.22-46.96z" fill="#e73635"></path>
        <path d="M1128.05 281.26L1129.92 281.26L1129.92 283.13L1128.05 283.13z" stroke="#037b0b"></path>
        <path d="M609.71 349.1 a24.5 24.5 0 1 0 49 0 a24.5 24.5 0 1 0 -49 0z" stroke="#e73635"></path>
        <path d="M1142.3 417.55 a28.43 28.43 0 1 0 56.86 0 a28.43 28.43 0 1 0 -56.86 0z" fill="#e73635"></path>
        <path d="M1118.86 102.75L1166.14 102.75L1166.14 150.03L1118.86 150.03z" fill="#d3b714"></path>
        <path d="M735.59 2.29L755.04 2.29L755.04 40.49L735.59 40.49z" fill="#037b0b"></path>
        <path d="M223.35 195.25 a5.62 5.62 0 1 0 11.24 0 a5.62 5.62 0 1 0 -11.24 0z" fill="#e73635"></path>
        <path d="M-1.19 10.26a32.75 32.75 0 1 0 57.2 31.91z" stroke="#037b0b"></path>
        <path d="M1338.67 80.76L1342.43 80.76L1342.43 84.52L1338.67 84.52z" stroke="#037b0b"></path>
        <path d="M670.68 437.65L681.49 437.65L681.49 448.46L670.68 448.46z" fill="#d3b714"></path>
        <path d="M311.5 273.11L365.64 273.11L365.64 327.25L311.5 327.25z" stroke="#e73635"></path>
        <path d="M666.69 281.9a11.42 11.42 0 1 0 9.23-20.89z" fill="#037b0b"></path>
        <path d="M112.35 12.11a24.1 24.1 0 1 0-38.87 28.51z" stroke="#e73635"></path>
        <path d="M439.26 432.51L466.04 432.51L466.04 462.18L439.26 462.18z" stroke="#e73635"></path>
        <path d="M766.66 301.64 a16.44 16.44 0 1 0 32.88 0 a16.44 16.44 0 1 0 -32.88 0z" fill="#037b0b"></path>
        <path d="M1281.03 421.31 a25.7 25.7 0 1 0 51.4 0 a25.7 25.7 0 1 0 -51.4 0z" fill="#037b0b"></path>
        <path d="M989.19 544.68L1035.12 544.68L1035.12 590.61L989.19 590.61z" fill="#d3b714"></path>
        <path d="M706.47 386.71 a50.05 50.05 0 1 0 100.1 0 a50.05 50.05 0 1 0 -100.1 0z" stroke="#e73635"></path>
        <path d="M446.88 540.43 a27.9 27.9 0 1 0 55.8 0 a27.9 27.9 0 1 0 -55.8 0z" fill="#d3b714"></path>
        <path d="M390.51 11.88L438.85 11.88L438.85 60.22L390.51 60.22z" fill="#e73635"></path>
        <path d="M1043.71 381.6 a7.72 7.72 0 1 0 15.44 0 a7.72 7.72 0 1 0 -15.44 0z" fill="#037b0b"></path>
        <path d="M110.43 491.96L143.51 491.96L143.51 501.87L110.43 501.87z" fill="#d3b714"></path>
        <path d="M1311.49 303.66a49.65 49.65 0 1 0 66.16-74.05z" fill="#037b0b"></path>
    </g>
    <defs>
        <mask id="SvgjsMask1000">
            <rect width="1440" height="560" fill="#ffffff"></rect>
        </mask>
    </defs>
</svg>